# xmcd CD database file
#
# Track frame offsets:
#	150
#	14059
#	27187
#	37794
#	50085
#	66888
#	76780
#	90101
#	102860
#	114147
#	128165
#	139047
#	148566
#	159107
#	173499
#	185229
#	195332
#	205303
#	219753
#	228103
#
# Disc length: 3210 seconds
#
# Revision: 0
# Processed by: cddbd v1.5.2PL0 Copyright (c) Steve Scherf et al.
# Submitted via: CDex 1.51
#
DISCID=f50c8814
DTITLE=Various Artist - Country Legends - Volume 3
DYEAR=2004
DGENRE=Country
TTITLE0=Bill Monroe - Blue Moon Of Kentucky
TTITLE1=Kenny Rogers - Ruby Don't Take Your Love To Town
TTITLE2=Billie Jo Spears - I'm So Lonesome I Could Cry
TTITLE3=Hank Williams - You Cheatin' Heart
TTITLE4=Lynn Anderson - Blue Bayou
TTITLE5=Willie Nelson - Broken Promises
TTITLE6=Charley Pride - (I'm So) Afraid Of Losing You Again
TTITLE7=Dolly Parton - Little Blossom
TTITLE8=Hank Lochlin - Please Send Me The Pillow You Dream On
TTITLE9=Rita Remington - Angel In The Morning
TTITLE10=Frankie Laine - A Woman In Love
TTITLE11=Jeannie C. Riley - The Girl Most Likely
TTITLE12=Jim Reeves - Just Call Me Lonesome
TTITLE13=The Carter Family - Wildwood Flower
TTITLE14=Waylon Jennings - Cryin'
TTITLE15=Faron Young - Hello Walls
TTITLE16=Ferlin Huskey - Wings Of A Dove
TTITLE17=Ed Bruce - Behind Closed Doors
TTITLE18=Johnny Cash - Country Boy
TTITLE19=Freddy Fender - You'll Lose A Good Thing
EXTD=YEAR: 2004
EXTT0=
EXTT1=
EXTT2=
EXTT3=
EXTT4=
EXTT5=
EXTT6=
EXTT7=
EXTT8=
EXTT9=
EXTT10=
EXTT11=
EXTT12=
EXTT13=
EXTT14=
EXTT15=
EXTT16=
EXTT17=
EXTT18=
EXTT19=
PLAYORDER=
